<svg id="ES" xmlns="http://www.w3.org/2000/svg" viewBox="0 0 287.99 86"><defs><style>.cls-1{fill:#1d1d1b}.cls-2{fill:#fff}</style></defs><title>es</title><rect class="cls-1" y="-.18" width="287.99" height="86" rx="18.35"/><path class="cls-2" d="M61 41.27a12.33 12.33 0 0 1 5.88-10.36 12.64 12.64 0 0 0-10-5.39C52.71 25.08 48.64 28 46.5 28s-5.46-2.47-9-2.4a13.27 13.27 0 0 0-11.16 6.82c-4.83 8.36-1.23 20.64 3.4 27.4 2.31 3.31 5 7 8.56 6.88s4.75-2.21 8.93-2.21 5.36 2.21 9 2.12 6.05-3.32 8.29-6.66a27.5 27.5 0 0 0 3.79-7.72A11.94 11.94 0 0 1 61 41.27zM54.16 21.07a12.13 12.13 0 0 0 2.78-8.71 12.41 12.41 0 0 0-8 4.14c-1.71 2-3.25 5.3-2.85 8.4 3.02.22 6.13-1.53 8.07-3.83zM111.1 66.25h-4.84l-2.65-8.33h-9.22l-2.52 8.33h-4.72l9.13-28.36h5.64zm-8.29-11.83l-2.4-7.4Q100 45.88 99 41.68h-.09q-.4 1.8-1.34 5.34l-2.36 7.4zM134.58 55.77a11.63 11.63 0 0 1-2.82 8.23 8.25 8.25 0 0 1-6.27 2.69c-2.7 0-4.63-1-5.81-2.9h-.09v10.79h-4.54v-22c0-2.18-.06-4.43-.17-6.73h4l.25 3.24h.09a8.09 8.09 0 0 1 12.94-.8 11.29 11.29 0 0 1 2.42 7.48zm-4.63.17A8.4 8.4 0 0 0 128.6 51a4.64 4.64 0 0 0-3.95-2 4.7 4.7 0 0 0-3.05 1.11 5.15 5.15 0 0 0-1.79 2.89 5.93 5.93 0 0 0-.21 1.38v3.41a5.48 5.48 0 0 0 1.4 3.81 4.57 4.57 0 0 0 3.56 1.54 4.66 4.66 0 0 0 4-2 8.74 8.74 0 0 0 1.44-5.2zM158.1 55.77a11.63 11.63 0 0 1-2.82 8.23 8.25 8.25 0 0 1-6.28 2.71c-2.7 0-4.63-1-5.81-2.9h-.08v10.77h-4.55v-22c0-2.18 0-4.43-.16-6.73h4l.26 3.24h.08a8.09 8.09 0 0 1 12.94-.8 11.29 11.29 0 0 1 2.42 7.48zm-4.63.17a8.4 8.4 0 0 0-1.35-4.94 4.64 4.64 0 0 0-4-2 4.75 4.75 0 0 0-3.06 1.11 5.19 5.19 0 0 0-1.73 2.89 5.93 5.93 0 0 0-.21 1.38v3.41a5.48 5.48 0 0 0 1.36 3.77 4.56 4.56 0 0 0 3.52 1.58 4.66 4.66 0 0 0 4-2 8.74 8.74 0 0 0 1.47-5.2zM184.4 58.3a7.57 7.57 0 0 1-2.52 5.89c-1.85 1.65-4.42 2.48-7.73 2.48a13.51 13.51 0 0 1-7.35-1.77l1-3.78a12.54 12.54 0 0 0 6.57 1.81 6.21 6.21 0 0 0 4-1.16 3.77 3.77 0 0 0 1.43-3.1 4 4 0 0 0-1.18-2.91 11.13 11.13 0 0 0-3.91-2.19c-5-1.85-7.45-4.57-7.45-8.13a7.19 7.19 0 0 1 2.61-5.73 10.31 10.31 0 0 1 7-2.24 13.7 13.7 0 0 1 6.43 1.35l-1.13 3.7a11.18 11.18 0 0 0-5.43-1.3A5.45 5.45 0 0 0 173 42.4a3.35 3.35 0 0 0-1.14 2.6 3.45 3.45 0 0 0 1.3 2.77 14.39 14.39 0 0 0 4.13 2.19 13.89 13.89 0 0 1 5.38 3.45 7.21 7.21 0 0 1 1.73 4.89zM199.42 49.21h-5v9.93c0 2.52.88 3.79 2.65 3.79a8.08 8.08 0 0 0 2-.22l.13 3.45a10.21 10.21 0 0 1-3.54.51 5.48 5.48 0 0 1-4.2-1.67q-1.52-1.65-1.51-5.52V49.2h-3v-3.4h3v-3.75l4.46-1.35v5.1h5zM222 55.86a11.19 11.19 0 0 1-2.69 7.74 9.6 9.6 0 0 1-7.49 3.11 9.14 9.14 0 0 1-7.17-3A10.9 10.9 0 0 1 202 56.2a11.13 11.13 0 0 1 2.76-7.79 9.52 9.52 0 0 1 7.42-3 9.34 9.34 0 0 1 7.24 3 10.72 10.72 0 0 1 2.58 7.45zm-4.7.14a9.17 9.17 0 0 0-1.22-4.85A4.49 4.49 0 0 0 212 48.7a4.55 4.55 0 0 0-4.16 2.45 9.33 9.33 0 0 0-1.22 4.94 9.17 9.17 0 0 0 1.22 4.85 4.64 4.64 0 0 0 8.2 0A9.23 9.23 0 0 0 217.3 56zM236.78 49.8a7.31 7.31 0 0 0-1.43-.13 4.28 4.28 0 0 0-3.7 1.81 6.79 6.79 0 0 0-1.14 4v10.77H226v-14c0-2.36 0-4.5-.17-6.44h4l.17 3.91h.12a7.1 7.1 0 0 1 2.27-3.24 5.52 5.52 0 0 1 3.29-1.09 7.59 7.59 0 0 1 1.13.08zM257.1 55.06a11 11 0 0 1-.16 2.06h-13.63a5.94 5.94 0 0 0 2 4.63 6.78 6.78 0 0 0 4.46 1.43 15 15 0 0 0 5.52-1l.71 3.16a17.11 17.11 0 0 1-6.86 1.26 9.91 9.91 0 0 1-7.47-2.8 10.36 10.36 0 0 1-2.71-7.51 11.71 11.71 0 0 1 2.53-7.7 8.69 8.69 0 0 1 7.15-3.28 7.61 7.61 0 0 1 6.69 3.28 11.08 11.08 0 0 1 1.77 6.47zm-4.33-1.18a6.2 6.2 0 0 0-.88-3.49 4 4 0 0 0-3.62-1.9 4.32 4.32 0 0 0-3.62 1.85 6.87 6.87 0 0 0-1.34 3.54zM99.57 14.19l-.5 1.81a6.16 6.16 0 0 0-2.64-.54 4.76 4.76 0 0 0-3.58 1.37 5.49 5.49 0 0 0-1.4 4 5.44 5.44 0 0 0 1.3 3.87 4.67 4.67 0 0 0 3.62 1.4 6.57 6.57 0 0 0 2.74-.51l.4 1.76a8.38 8.38 0 0 1-3.54.59 6.73 6.73 0 0 1-5-1.84 7 7 0 0 1-1.9-5.16 7.55 7.55 0 0 1 10.48-6.73zM111.91 22.63a5.54 5.54 0 0 1-1.32 3.81 4.73 4.73 0 0 1-3.68 1.56 4.5 4.5 0 0 1-3.53-1.47 5.36 5.36 0 0 1-1.31-3.7 5.46 5.46 0 0 1 1.36-3.83 4.67 4.67 0 0 1 3.64-1.48 4.62 4.62 0 0 1 3.56 1.48 5.32 5.32 0 0 1 1.28 3.63zm-2.31.07a4.62 4.62 0 0 0-.6-2.38 2.31 2.31 0 0 0-4 0 4.5 4.5 0 0 0-.6 2.42 4.54 4.54 0 0 0 .6 2.39 2.27 2.27 0 0 0 4 0 4.49 4.49 0 0 0 .6-2.43zM123.92 27.74h-2.23V22c0-1.77-.68-2.66-2-2.66a2 2 0 0 0-1.61.74 2.58 2.58 0 0 0-.62 1.72v6h-2.26v-7.24c0-.88 0-1.84-.09-2.87h2l.1 1.57h.06a3.2 3.2 0 0 1 1.16-1.21 3.74 3.74 0 0 1 2-.56 3.19 3.19 0 0 1 2.33.91 4.41 4.41 0 0 1 1.16 3.32zM134 24.85a2.74 2.74 0 0 1-1 2.25 4.36 4.36 0 0 1-2.86.85 5.75 5.75 0 0 1-2.91-.69l.48-1.65a4.63 4.63 0 0 0 2.45.7c1.15 0 1.72-.42 1.72-1.26a1.24 1.24 0 0 0-.37-.92 3.9 3.9 0 0 0-1.32-.71c-1.8-.66-2.69-1.63-2.69-2.89a2.79 2.79 0 0 1 1-2.18 3.88 3.88 0 0 1 2.62-.86 5.09 5.09 0 0 1 2.55.6l-.48 1.61a3.9 3.9 0 0 0-2-.58 1.66 1.66 0 0 0-1.1.33 1.06 1.06 0 0 0-.39.85 1 1 0 0 0 .41.84 4.62 4.62 0 0 0 1.36.68q2.53.99 2.53 3.03zM139.55 27.74h-2.23v-10h2.23zm1.92-14.27l-2.5 3h-1.55l1.78-3zM152.32 17.69c0 .82-.08 1.77-.08 2.86v5.74q0 3.24-1.45 4.55a5.33 5.33 0 0 1-3.72 1.2 6.44 6.44 0 0 1-3.37-.79l.52-1.72a5.39 5.39 0 0 0 2.85.77q3 0 3-3.18v-1H150a3.19 3.19 0 0 1-3 1.55 3.78 3.78 0 0 1-3-1.38 5.27 5.27 0 0 1-1.17-3.52 5.53 5.53 0 0 1 1.36-3.9 4 4 0 0 1 3.08-1.39 3.08 3.08 0 0 1 2.93 1.59h.05l.08-1.38zM150 23.44v-1.78a2.5 2.5 0 0 0-.64-1.73 2.09 2.09 0 0 0-1.67-.73 2.29 2.29 0 0 0-1.88.95 4.07 4.07 0 0 0-.74 2.55 3.69 3.69 0 0 0 .69 2.33 2.26 2.26 0 0 0 1.93 1 2.14 2.14 0 0 0 1.34-.44 2.4 2.4 0 0 0 .84-1.21 2.69 2.69 0 0 0 .13-.94zM164.89 27.74h-2l-.13-1.53a3.48 3.48 0 0 1-3.19 1.79 3.12 3.12 0 0 1-2.37-1 4.89 4.89 0 0 1-1-3.43v-5.88h2.23v5.54c0 1.93.66 2.9 2 2.9a2.07 2.07 0 0 0 2.07-1.45 2.26 2.26 0 0 0 .15-.85v-6.14h2.23v7.15c-.07.95-.04 1.92.01 2.9zM177.05 22.24a5.65 5.65 0 0 1-.08 1h-6.7a2.91 2.91 0 0 0 1 2.28 3.36 3.36 0 0 0 2.19.7 7.34 7.34 0 0 0 2.71-.48l.35 1.56a8.48 8.48 0 0 1-3.37.62 4.86 4.86 0 0 1-3.67-1.38 5.08 5.08 0 0 1-1.34-3.69 5.81 5.81 0 0 1 1.24-3.78 4.3 4.3 0 0 1 3.52-1.61 3.73 3.73 0 0 1 3.28 1.61 5.36 5.36 0 0 1 .87 3.17zm-2.13-.58a3.07 3.07 0 0 0-.43-1.71 1.94 1.94 0 0 0-1.78-.93 2.12 2.12 0 0 0-1.78.91 3.35 3.35 0 0 0-.66 1.73zM182.52 27.74h-2.23V13.08h2.23zM195.67 22.63a5.54 5.54 0 0 1-1.32 3.81 4.73 4.73 0 0 1-3.68 1.56 4.5 4.5 0 0 1-3.53-1.47 5.36 5.36 0 0 1-1.31-3.7 5.46 5.46 0 0 1 1.36-3.83 4.67 4.67 0 0 1 3.64-1.48 4.62 4.62 0 0 1 3.56 1.48 5.32 5.32 0 0 1 1.28 3.63zm-2.32.07a4.52 4.52 0 0 0-.6-2.38 2.19 2.19 0 0 0-2-1.2 2.22 2.22 0 0 0-2 1.2 4.5 4.5 0 0 0-.6 2.42 4.54 4.54 0 0 0 .6 2.39 2.27 2.27 0 0 0 4 0 4.48 4.48 0 0 0 .6-2.43zM213.26 22.24a5.65 5.65 0 0 1-.08 1h-6.7a2.94 2.94 0 0 0 1 2.28 3.38 3.38 0 0 0 2.19.7 7.34 7.34 0 0 0 2.71-.48l.35 1.56a8.45 8.45 0 0 1-3.37.62 4.86 4.86 0 0 1-3.67-1.38 5.08 5.08 0 0 1-1.33-3.69 5.75 5.75 0 0 1 1.24-3.78 4.29 4.29 0 0 1 3.51-1.61 3.75 3.75 0 0 1 3.29 1.61 5.35 5.35 0 0 1 .86 3.17zm-2.13-.58a3 3 0 0 0-.43-1.66 2 2 0 0 0-1.78-.93 2.12 2.12 0 0 0-1.78.91 3.35 3.35 0 0 0-.66 1.73zM225.23 27.74H223V22c0-1.77-.68-2.66-2-2.66a2 2 0 0 0-1.61.74 2.58 2.58 0 0 0-.62 1.72v6h-2.27v-7.24c0-.88 0-1.84-.08-2.87h2l.1 1.57h.06a3.2 3.2 0 0 1 1.16-1.21 3.75 3.75 0 0 1 2-.57 3.19 3.19 0 0 1 2.33.91 4.42 4.42 0 0 1 1.16 3.33zM243.46 22.24a5.65 5.65 0 0 1-.08 1h-6.7a2.94 2.94 0 0 0 1 2.28 3.38 3.38 0 0 0 2.19.7 7.31 7.31 0 0 0 2.71-.48l.35 1.56a8.45 8.45 0 0 1-3.37.62 4.88 4.88 0 0 1-3.67-1.38 5.08 5.08 0 0 1-1.33-3.69 5.75 5.75 0 0 1 1.24-3.78 4.29 4.29 0 0 1 3.51-1.61 3.76 3.76 0 0 1 3.29 1.61 5.43 5.43 0 0 1 .86 3.17zm-2.13-.58a3 3 0 0 0-.43-1.66 2 2 0 0 0-1.78-.93 2.12 2.12 0 0 0-1.78.91 3.35 3.35 0 0 0-.66 1.73zM248.94 27.74h-2.23V13.08h2.23z"/></svg>