<svg xmlns="http://www.w3.org/2000/svg" width="74" height="78" viewBox="0 0 74 78"><g transform="translate(0 0.409)"><ellipse cx="37" cy="39" rx="37" ry="39" transform="translate(0 -0.409)" fill="#e8e5e5"/><g transform="translate(19.908 15.505)"><g transform="translate(6.78)"><g transform="translate(0)"><path d="M131.169,0a10.17,10.17,0,1,0,10.17,10.17A10.181,10.181,0,0,0,131.169,0Z" transform="translate(-121)" fill="#bcbcbc"/></g></g><g transform="translate(0 22.599)"><g transform="translate(0)"><path d="M60.6,304.384A14.5,14.5,0,0,0,50.209,300h-4.52A14.5,14.5,0,0,0,35.3,304.384,14.821,14.821,0,0,0,31,314.84a1.13,1.13,0,0,0,1.13,1.13H63.768a1.13,1.13,0,0,0,1.13-1.13A14.821,14.821,0,0,0,60.6,304.384Z" transform="translate(-31 -300)" fill="#bcbcbc"/></g></g></g></g></svg>