<svg xmlns="http://www.w3.org/2000/svg" width="100" height="100" viewBox="0 0 100 100"><g transform="translate(-3 67.409)"><circle cx="50" cy="50" r="50" transform="translate(3 -67.409)" fill="#e8e5e5"/><g transform="translate(27.569 -46.344)"><g transform="translate(10.172)"><g transform="translate(0)"><path d="M136.259,0a15.259,15.259,0,1,0,15.259,15.259A15.276,15.276,0,0,0,136.259,0Z" transform="translate(-121)" fill="#bcbcbc"/></g></g><g transform="translate(0 33.908)"><g transform="translate(0)"><path d="M75.416,306.578A21.753,21.753,0,0,0,59.822,300H53.04a21.753,21.753,0,0,0-15.594,6.578A22.238,22.238,0,0,0,31,322.266a1.7,1.7,0,0,0,1.7,1.7H80.167a1.7,1.7,0,0,0,1.7-1.7A22.238,22.238,0,0,0,75.416,306.578Z" transform="translate(-31 -300)" fill="#bcbcbc"/></g></g></g></g></svg>